<svg width="56" height="56" viewBox="0 0 56 56" fill="none" xmlns="http://www.w3.org/2000/svg">
<path d="M0 28C0 43.464 12.536 56 28 56C43.464 56 56 43.464 56 28C56 12.536 43.464 0 28 0C12.536 0 0 12.536 0 28Z" fill="black"/>
<path d="M28.2829 20.308C29.3419 20.308 30.6693 19.5701 31.4598 18.5862C32.1757 17.6945 32.6977 16.4493 32.6977 15.2041C32.6977 15.035 32.6828 14.8659 32.653 14.7275C31.4747 14.7737 30.0578 15.5423 29.2077 16.5723C28.5365 17.3563 27.925 18.5862 27.925 19.8468C27.925 20.0312 27.9548 20.2157 27.9697 20.2772C28.0443 20.2926 28.1636 20.308 28.2829 20.308ZM24.5542 38.9094C26.001 38.9094 26.6423 37.9101 28.447 37.9101C30.2815 37.9101 30.6842 38.8786 32.295 38.8786C33.876 38.8786 34.9349 37.3721 35.9342 35.8962C37.0528 34.2052 37.5152 32.5449 37.545 32.468C37.4406 32.4373 34.4129 31.1613 34.4129 27.5794C34.4129 24.4741 36.7993 23.0751 36.9335 22.9675C35.3525 20.6308 32.9513 20.5693 32.295 20.5693C30.5202 20.5693 29.0734 21.6762 28.1636 21.6762C27.1792 21.6762 25.8817 20.6308 24.3454 20.6308C21.4221 20.6308 18.4541 23.1212 18.4541 27.8254C18.4541 30.7463 19.5578 33.8362 20.915 35.8347C22.0784 37.5258 23.0926 38.9094 24.5542 38.9094Z" fill="white"/>
</svg>
