<svg width="24" height="24" viewBox="0 0 24 24" fill="none" xmlns="http://www.w3.org/2000/svg">
<g clip-path="url(#clip0_5344_19980)">
<path d="M9.99961 19.0002V14.0002H13.9996V19.0002C13.9996 19.5502 14.4496 20.0002 14.9996 20.0002H17.9996C18.5496 20.0002 18.9996 19.5502 18.9996 19.0002V12.0002H20.6996C21.1596 12.0002 21.3796 11.4302 21.0296 11.1302L12.6696 3.60021C12.2896 3.26021 11.7096 3.26021 11.3296 3.60021L2.96961 11.1302C2.62961 11.4302 2.83961 12.0002 3.29961 12.0002H4.99961V19.0002C4.99961 19.5502 5.44961 20.0002 5.99961 20.0002H8.99961C9.54961 20.0002 9.99961 19.5502 9.99961 19.0002Z" fill="#111111"/>
</g>
<defs>
<clipPath id="clip0_5344_19980">
<rect width="24" height="24" fill="white"/>
</clipPath>
</defs>
</svg>
