<svg width="20" height="20" viewBox="0 0 20 20" fill="none" xmlns="http://www.w3.org/2000/svg">
<g clip-path="url(#clip0_5348_23937)">
<path d="M10.0003 1.6665C5.39199 1.6665 1.66699 5.3915 1.66699 9.99984C1.66699 14.6082 5.39199 18.3332 10.0003 18.3332C14.6087 18.3332 18.3337 14.6082 18.3337 9.99984C18.3337 5.3915 14.6087 1.6665 10.0003 1.6665ZM13.5837 13.5832C13.2587 13.9082 12.7337 13.9082 12.4087 13.5832L10.0003 11.1748L7.59199 13.5832C7.26699 13.9082 6.74199 13.9082 6.41699 13.5832C6.09199 13.2582 6.09199 12.7332 6.41699 12.4082L8.82533 9.99984L6.41699 7.5915C6.09199 7.2665 6.09199 6.7415 6.41699 6.4165C6.74199 6.0915 7.26699 6.0915 7.59199 6.4165L10.0003 8.82484L12.4087 6.4165C12.7337 6.0915 13.2587 6.0915 13.5837 6.4165C13.9087 6.7415 13.9087 7.2665 13.5837 7.5915L11.1753 9.99984L13.5837 12.4082C13.9003 12.7248 13.9003 13.2582 13.5837 13.5832Z" fill="#999999"/>
</g>
<defs>
<clipPath id="clip0_5348_23937">
<rect width="20" height="20" fill="white"/>
</clipPath>
</defs>
</svg>
