<svg width="32" height="32" viewBox="0 0 32 32" fill="none" xmlns="http://www.w3.org/2000/svg">
<g clip-path="url(#clip0_5344_19944)">
<path d="M16.0001 29.3335C17.4667 29.3335 18.6667 28.1335 18.6667 26.6668H13.3334C13.3334 28.1335 14.5201 29.3335 16.0001 29.3335ZM24.0001 21.3335V14.6668C24.0001 10.5735 21.8134 7.14683 18.0001 6.24016V5.3335C18.0001 4.22683 17.1067 3.3335 16.0001 3.3335C14.8934 3.3335 14.0001 4.22683 14.0001 5.3335V6.24016C10.1734 7.14683 8.00007 10.5602 8.00007 14.6668V21.3335L6.28007 23.0535C5.44007 23.8935 6.02674 25.3335 7.2134 25.3335H24.7734C25.9601 25.3335 26.5601 23.8935 25.7201 23.0535L24.0001 21.3335Z" fill="white"/>
</g>
<defs>
<clipPath id="clip0_5344_19944">
<rect width="32" height="32" fill="white"/>
</clipPath>
</defs>
</svg>
