<svg width="56" height="56" viewBox="0 0 56 56" fill="none" xmlns="http://www.w3.org/2000/svg">
<g clip-path="url(#clip0_5369_48893)">
<path d="M56 28C56 12.536 43.464 0 28 0C12.536 0 0 12.536 0 28C0 43.464 12.536 56 28 56C43.464 56 56 43.464 56 28Z" fill="#F2F2F2"/>
<mask id="mask0_5369_48893" style="mask-type:luminance" maskUnits="userSpaceOnUse" x="15" y="15" width="26" height="26">
<path d="M40.727 15.2729H15.2725V40.7275H40.727V15.2729Z" fill="white"/>
</mask>
<g mask="url(#mask0_5369_48893)">
<path d="M40.2182 28.2894C40.2182 27.3869 40.1372 26.5192 39.9868 25.686H28V30.6092H34.8496C34.5545 32.2001 33.6579 33.5481 32.31 34.4505V37.6439H36.4232C38.8298 35.4283 40.2182 32.1654 40.2182 28.2894Z" fill="#4285F4"/>
<path d="M27.9996 40.7275C31.4359 40.7275 34.3169 39.5878 36.4226 37.6441L32.3094 34.4507C31.1698 35.2143 29.7119 35.6655 27.9996 35.6655C24.6846 35.6655 21.8789 33.4267 20.878 30.4185H16.626V33.716C18.7202 37.8755 23.0244 40.7275 27.9996 40.7275Z" fill="#34A853"/>
<path d="M20.8782 30.4185C20.6236 29.6549 20.4791 28.8392 20.4791 28.0004C20.4791 27.1615 20.6236 26.3458 20.8782 25.5822V22.2847H16.6261C15.7642 24.0028 15.2725 25.9467 15.2725 28.0004C15.2725 30.054 15.7642 31.9979 16.6261 33.716L20.8782 30.4185Z" fill="#FBBC04"/>
<path d="M27.9996 20.335C29.8681 20.335 31.5458 20.9771 32.8648 22.2382L36.5153 18.5878C34.3112 16.5341 31.4301 15.2729 27.9996 15.2729C23.0244 15.2729 18.7202 18.125 16.626 22.2845L20.878 25.582C21.8789 22.5738 24.6846 20.335 27.9996 20.335Z" fill="#E94235"/>
</g>
</g>
<defs>
<clipPath id="clip0_5369_48893">
<rect width="56" height="56" fill="white"/>
</clipPath>
</defs>
</svg>
